<?xml version="1.0" encoding="UTF-8" standalone="no" ?>
<!DOCTYPE svg PUBLIC "-//W3C//DTD SVG 1.1//EN" "http://www.w3.org/Graphics/SVG/1.1/DTD/svg11.dtd">
<svg xmlns="http://www.w3.org/2000/svg" xmlns:xlink="http://www.w3.org/1999/xlink" version="1.1" width="20" height="20" viewBox="0 0 35 35" xml:space="preserve">
<desc>Created with Fabric.js 4.6.0</desc>
<defs>
</defs>
<g transform="matrix(1 0 0 1 17.63 17.66)" id="CMAphPdxSBiIUH4CbplN-"  >
<path style="stroke: rgb(208,208,208); stroke-width: 1; stroke-dasharray: none; stroke-linecap: butt; stroke-dashoffset: 0; stroke-linejoin: miter; stroke-miterlimit: 4; fill: rgb(243,243,243); fill-rule: nonzero; opacity: 1;" vector-effect="non-scaling-stroke"  transform=" translate(-17, -17)" d="M 0 7.21249 C 0 3.2291399999999997 3.22914 0 7.21249 0 L 26.78752 0 L 26.78752 0 C 30.770870000000002 0 34.00001 3.22914 34.00001 7.21249 L 34.00001 26.78752 L 34.00001 26.78752 C 34.00001 30.770870000000002 30.770870000000002 34.00001 26.787520000000004 34.00001 L 7.2124900000000025 34.00001 L 7.2124900000000025 34.00001 C 3.2291400000000023 34.00001 2.6645352591003757e-15 30.770870000000002 2.6645352591003757e-15 26.787520000000004 z" stroke-linecap="round" />
</g>
<g transform="matrix(1 0 0 1 17.63 17.66)" id="NAebJMDPUfzC8uRVf-s1W"  >
<path style="stroke: rgb(0,0,0); stroke-width: 0; stroke-dasharray: none; stroke-linecap: butt; stroke-dashoffset: 0; stroke-linejoin: miter; stroke-miterlimit: 4; fill: rgb(250,164,87); fill-rule: nonzero; opacity: 1;" vector-effect="non-scaling-stroke"  transform=" translate(-11, -11)" d="M 11 16.5 C 14.03754 16.5 16.5 14.03754 16.5 11 C 16.5 7.96246 14.03754 5.5 11 5.5 C 7.96246 5.5 5.5 7.96246 5.5 11 C 5.5 14.03754 7.96246 16.5 11 16.5 z M 11 0 C 11.37972 0 11.6875 0.30778 11.6875 0.6875 L 11.6875 3.4375 C 11.6875 3.81722 11.37972 4.125 11 4.125 C 10.62028 4.125 10.3125 3.81722 10.3125 3.4375 L 10.3125 0.6875 C 10.3125 0.30778 10.62028 0 11 0 z M 11 17.875 C 11.37972 17.875 11.6875 18.18278 11.6875 18.5625 L 11.6875 21.3125 C 11.6875 21.69222 11.37972 22 11 22 C 10.62028 22 10.3125 21.69222 10.3125 21.3125 L 10.3125 18.5625 C 10.3125 18.18278 10.62028 17.875 11 17.875 z M 22 11 C 22 11.37972 21.69222 11.6875 21.3125 11.6875 L 18.5625 11.6875 C 18.18278 11.6875 17.875 11.37972 17.875 11 C 17.875 10.62028 18.18278 10.3125 18.5625 10.3125 L 21.3125 10.3125 C 21.69222 10.3125 22 10.62028 22 11 z M 4.125 11 C 4.125 11.37972 3.81722 11.6875 3.4375 11.6875 L 0.6875 11.6875 C 0.30778 11.6875 0 11.37972 0 11 C 0 10.62028 0.30778 10.3125 0.6875 10.3125 L 3.4375 10.3125 C 3.81722 10.3125 4.125 10.62028 4.125 11 z M 18.77843 3.22157 C 19.04683 3.49008 19.04683 3.9252399999999996 18.77843 4.19364 L 16.83418 6.13921 C 16.56534 6.40761 16.12985 6.40739 15.86134 6.13855 C 15.59294 5.86971 15.593160000000001 5.434220000000001 15.862 5.165710000000001 L 17.80625 3.2214600000000004 C 18.074759999999998 2.9530600000000002 18.509919999999997 2.9530600000000002 18.778319999999997 3.2214600000000004 z M 6.138 15.862 C 6.4064 16.13051 6.4064 16.56567 6.138 16.83407 L 4.19375 18.77832 C 3.9240299999999997 19.03891 3.4951399999999997 19.03517 3.23004 18.76996 C 2.9648299999999996 18.50475 2.9610899999999996 18.07597 3.2216799999999997 17.806250000000002 L 5.1659299999999995 15.862000000000002 C 5.4344399999999995 15.593600000000002 5.869599999999999 15.593600000000002 6.138 15.862000000000002 z M 18.77843 18.77843 C 18.50992 19.04683 18.07476 19.04683 17.80636 18.77843 L 15.862110000000001 16.83418 C 15.60152 16.56446 15.605260000000001 16.13557 15.870470000000001 15.87047 C 16.13568 15.60526 16.56446 15.601519999999999 16.83418 15.86211 L 18.77843 17.806359999999998 C 19.04683 18.074869999999997 19.04683 18.510029999999997 18.77843 18.778429999999997 z M 6.138 6.13943 C 5.86949 6.40783 5.43433 6.40783 5.1659299999999995 6.13943 L 3.221679999999999 4.19386 C 3.0429299999999992 4.02127 2.971319999999999 3.76563 3.034239999999999 3.52528 C 3.0971599999999992 3.28493 3.284819999999999 3.09716 3.525279999999999 3.03424 C 3.765629999999999 2.97132 4.0212699999999995 3.04304 4.193859999999999 3.22168 L 6.138109999999999 5.16593 C 6.267469999999999 5.2949600000000006 6.340069999999999 5.47008 6.340069999999999 5.65268 C 6.340069999999999 5.83528 6.267359999999999 6.0104 6.138109999999999 6.13943 z" stroke-linecap="round" />
</g>
</svg>