<?xml version="1.0"?>
<svg xmlns="http://www.w3.org/2000/svg" xmlns:xlink="http://www.w3.org/1999/xlink" xmlns:svgjs="http://svgjs.com/svgjs" version="1.1" width="512" height="512" x="0" y="0" viewBox="0 0 24 24" style="enable-background:new 0 0 512 512" xml:space="preserve"><g><path xmlns="http://www.w3.org/2000/svg" d="M17,0H8V16H22V5A5,5,0,0,0,17,0Z" fill="#414141" data-original="#000000"/><path xmlns="http://www.w3.org/2000/svg" d="M4.395,16.061A3.013,3.013,0,0,1,5,16H6V.1A5,5,0,0,0,2,5V17.025A4.952,4.952,0,0,1,4.395,16.061Z" fill="#414141" data-original="#000000"/><path xmlns="http://www.w3.org/2000/svg" d="M22,18H5a3,3,0,0,0,0,6H17a5,5,0,0,0,5-5Z" fill="#414141" data-original="#000000"/></g></svg>
