<?xml version="1.0" ?><svg fill="none" height="82" viewBox="0 0 83 82" width="83" xmlns="http://www.w3.org/2000/svg"><path clip-rule="evenodd" d="M41.4992 0.0817871C19.0599 0.0817871 0.869141 18.2726 0.869141 40.7119C0.869141 63.1512 19.0599 81.342 41.4992 81.342C63.9395 81.342 82.1303 63.1512 82.1303 40.7119C82.1303 18.2726 63.9395 0.0817871 41.4992 0.0817871V0.0817871Z" fill="url(#paint0_radial)" fill-rule="evenodd"/><path clip-rule="evenodd" d="M48.2145 28.4951C48.7606 39.0328 35.976 51.8617 22.2891 49.1833C8.45237 46.4767 4.8476 29.5794 11.2264 20.3271C11.8268 19.456 48.135 26.9462 48.2145 28.4951V28.4951Z" fill="#282829" fill-rule="evenodd"/><path clip-rule="evenodd" d="M24.6612 49.4114C20.634 48.8964 13.2585 46.1989 18.4474 42.1405C20.1573 40.8028 22.6024 39.9358 25.6278 40.323C28.5507 40.6962 30.6779 42.059 32.1444 43.612C37.4982 49.2846 28.8021 49.9394 24.6612 49.4114V49.4114Z" fill="url(#paint1_linear)" fill-rule="evenodd"/><path d="M49.2195 28.4449C49.2809 29.6387 49.1853 30.8527 48.949 32.0657C48.082 36.4942 45.316 40.976 41.4196 44.4098C37.5272 47.8376 32.4871 50.2394 27.0639 50.521C25.4325 50.6055 23.7689 50.4989 22.0983 50.172C19.5094 49.6661 17.2534 48.6855 15.3323 47.3608C11.9971 45.0616 9.68777 41.7304 8.39834 38.0452C7.11696 34.38 6.84338 30.3589 7.56756 26.6525C8.05637 24.1531 9.00182 21.7865 10.4009 19.7578C10.6161 19.447 10.9681 19.2831 11.4439 19.2579C13.1427 19.1704 21.7201 20.7244 30.1818 22.5328C38.6798 24.3493 47.1486 26.4494 48.602 27.4521C48.9872 27.7187 49.1984 28.0476 49.2195 28.4449V28.4449ZM46.9736 31.6805C47.1516 30.7652 47.2401 29.858 47.226 28.9709C45.4267 28.0677 37.6469 26.1848 29.7644 24.5001C21.8317 22.8054 13.8729 21.3329 11.81 21.2645C10.7087 22.9743 9.95229 24.9487 9.54294 27.0377C8.88414 30.4072 9.13257 34.0582 10.2953 37.3833C11.4499 40.6864 13.5088 43.6635 16.4739 45.7073C18.1706 46.877 20.1732 47.745 22.4835 48.1966C23.9972 48.4934 25.4969 48.5899 26.9613 48.5135C31.8987 48.258 36.5103 46.0503 40.0889 42.8981C43.6625 39.75 46.1921 35.6765 46.9736 31.6805V31.6805Z" fill="#FED788"/><path d="M12.9206 24.7724C13.0745 24.0482 13.7866 23.5855 14.5108 23.7384L41.5093 29.4805C42.2335 29.6344 42.6961 30.3465 42.5433 31.0707C41.3745 35.7788 11.8203 29.1546 12.9206 24.7724V24.7724Z" fill="#E5E4E5"/><path d="M49.067 13.348C49.8022 13.4264 50.3353 14.0862 50.2578 14.8225C50.1794 15.5577 49.5186 16.0918 48.7833 16.0133C46.821 15.8021 45.2017 15.9469 43.8579 16.31C43.4969 16.4076 43.1559 16.5212 42.833 16.647C43.0654 16.7707 43.2937 16.8984 43.518 17.0302C44.5892 17.6578 45.5678 18.3699 46.4499 19.1383C47.0091 19.6251 47.0684 20.473 46.5816 21.0332C46.0948 21.5925 45.2469 21.6508 44.6867 21.164C43.9032 20.4811 43.0603 19.8645 42.1642 19.3385C41.3062 18.8356 40.3859 18.4021 39.4053 18.0581C39.1629 17.9726 38.9416 17.8177 38.7757 17.5964C38.3321 17.005 38.4518 16.1662 39.0432 15.7226C40.1476 14.8949 41.4963 14.1687 43.165 13.7181C44.7984 13.2765 46.7426 13.0975 49.067 13.348V13.348Z" fill="#2B2A29"/><path d="M14.6199 9.49308C13.9128 9.27281 13.5185 8.52148 13.7388 7.8144C13.9581 7.10733 14.7104 6.71205 15.4175 6.93232C17.6473 7.62632 19.3602 8.56573 20.6868 9.62383C22.0396 10.7041 22.9881 11.906 23.671 13.1039C24.0361 13.7466 23.8108 14.5653 23.1681 14.9294C22.9298 15.0652 22.6673 15.1185 22.4128 15.1004C21.3798 15.029 20.361 15.0602 19.3682 15.1808C18.3222 15.3086 17.3023 15.5379 16.3247 15.8477C15.6176 16.071 14.8623 15.6787 14.64 14.9716C14.4177 14.2646 14.809 13.5102 15.5161 13.2869C16.6456 12.9289 17.8254 12.6643 19.0434 12.5155H19.0484C19.3049 12.4843 19.5624 12.4592 19.8219 12.438C19.5764 12.1946 19.3099 11.9553 19.0182 11.7229C17.933 10.8569 16.5068 10.0805 14.6199 9.49308V9.49308Z" fill="#2B2A29"/><defs><radialGradient cx="0" cy="0" gradientTransform="translate(37.4165 27.6619) rotate(180) scale(128.792 128.795)" gradientUnits="userSpaceOnUse" id="paint0_radial" r="1"><stop stop-color="#FFE28E"/><stop offset="1" stop-color="#F9B86C"/></radialGradient><linearGradient gradientUnits="userSpaceOnUse" id="paint1_linear" x1="26.0814" x2="24.2549" y1="40.9215" y2="59.1354"><stop stop-color="#EE7B78"/><stop offset="1" stop-color="#65221D"/></linearGradient></defs></svg>