<svg viewBox="0 0 64 64" xmlns="http://www.w3.org/2000/svg"><g data-name="Stroke copy 3"><path d="M23 23h12v30H23z" fill="#ebebeb" class="fill-a8dba8"></path><path d="M23 34h12v4H23zM35 17h14v36H35z" fill="#8279bd" class="fill-79bd9a"></path><path d="M35 23h14v8H35zM35 41h14v4H35z" fill="#ebebeb" class="fill-a8dba8"></path><path d="M55 42V25h-6v28h12v-5a6 6 0 0 1-6-6Z" fill="#ffffff" class="fill-cff09e"></path><path d="M49 30h12v4H49z" fill="#ebebeb" class="fill-a8dba8"></path><path transform="rotate(15 14.575 40.273)" d="M12.56 34.28h4v12h-4z" fill="#ebebeb" class="fill-a8dba8"></path><rect height="14" rx="2" ry="2" transform="rotate(15 11.208 52.848)" width="8" x="7.2" y="45.84" fill="#8279bd" class="fill-79bd9a"></rect><path d="M20 3a17 17 0 1 0 17 17A17 17 0 0 0 20 3Zm0 30a13 13 0 1 1 13-13 13 13 0 0 1-13 13Z" fill="#ffffff" class="fill-cff09e"></path><path d="M15 32a13 13 0 0 0 15.94-19H15Z" fill="#ebebeb" class="fill-a8dba8"></path><path d="M15 27h15.94A12.89 12.89 0 0 0 33 20v-1H15Z" fill="#8279bd" class="fill-79bd9a"></path></g><g data-name="Stroke Close copy 3"><path d="M20 6a14 14 0 0 0-5.4 26.91A14 14 0 1 0 20 6Zm11.82 12H16v-4h14.38a12 12 0 0 1 1.44 4ZM8 20a12 12 0 0 1 20.92-8H15a1 1 0 0 0-1 1v17.38A12 12 0 0 1 8 20Zm12 12a12.05 12.05 0 0 1-4-.7V28h12.92A12 12 0 0 1 20 32Zm10.38-6H16v-6h16a12 12 0 0 1-1.62 6ZM31 45h-4a1 1 0 0 0 0 2h4a1 1 0 0 0 0-2ZM39 28h6a1 1 0 0 0 0-2h-6a1 1 0 0 0 0 2Z" fill="#424975" class="fill-3b8686"></path><path d="M61 24H50v-7a1 1 0 0 0-1-1H37.54a18 18 0 1 0-25 20.35l-2.18 8.17a3 3 0 0 0-2.67 2.2l-2.61 9.66a3 3 0 0 0 2.12 3.67l3.86 1a3 3 0 0 0 .78.1 3 3 0 0 0 2.9-2.15l2.58-9.66a3 3 0 0 0-1.2-3.24l2.19-8.16A15.67 15.67 0 0 0 20 38a16.52 16.52 0 0 0 2-.12V53a1 1 0 0 0 1 1h38a1 1 0 0 0 1-1V25a1 1 0 0 0-1-1Zm-1 9H50v-2h10Zm-12-3H36v-1.79A18 18 0 0 0 37.54 24H48Zm-14 3h-1.58A19.63 19.63 0 0 0 34 31.29Zm-4.07 2H34v2h-8.14a17.91 17.91 0 0 0 4.07-2ZM36 32h12v8H36Zm0 10h12v2H36Zm14-7h10v11H50Zm10-9v3H50v-3Zm-12-8v4H37.88a16.73 16.73 0 0 0 0-4ZM15.39 48.79l-2.59 9.66a1 1 0 0 1-1.22.7l-3.86-1a1 1 0 0 1-.61-.47 1 1 0 0 1-.1-.76l2.59-9.68a1 1 0 0 1 .46-.61 1 1 0 0 1 .76-.1l3.87 1a1 1 0 0 1 .6.47 1 1 0 0 1 .1.79Zm-1.15-3.42-1.94-.51 2.09-7.77a18.18 18.18 0 0 0 1.92.53ZM4 20a16 16 0 1 1 16 16A16 16 0 0 1 4 20Zm20 19h10v13H24Zm12 7h12v6H36Zm14 6v-4h10v4Z" fill="#424975" class="fill-3b8686"></path><path d="M19 24h3a1 1 0 0 0 0-2h-3a1 1 0 0 0 0 2ZM26 24h3a1 1 0 0 0 0-2h-3a1 1 0 0 0 0 2Z" fill="#424975" class="fill-3b8686"></path></g></svg>