<?xml version="1.0" ?><svg id="TwoTone" viewBox="0 0 64 64" xmlns="http://www.w3.org/2000/svg"><title/><desc/><g data-name="Stroke copy 3" id="Stroke_copy_3"><path d="M28,48A16,16,0,0,1,12,32V7H7V51a3,3,0,0,0,3,3H45V48Z" style="fill:#cff09e"/><path d="M10,4H45a0,0,0,0,1,0,0v6a0,0,0,0,1,0,0H10A3,3,0,0,1,7,7V7A3,3,0,0,1,10,4Z" style="fill:#a8dba8"/><path d="M50,50h4a0,0,0,0,1,0,0v4a0,0,0,0,1,0,0H50a2,2,0,0,1-2-2v0A2,2,0,0,1,50,50Z" style="fill:#79bd9a"/><path d="M57,45H42l-3-8H57a4,4,0,0,1,4,4h0A4,4,0,0,1,57,45Z" style="fill:#a8dba8"/><path d="M56.23,60h0a2.88,2.88,0,0,1-2.8-2.15L50,45h6l3,11.35A2.9,2.9,0,0,1,56.23,60Z" style="fill:#a8dba8"/></g><g data-name="Stroke Close copy 3" id="Stroke_Close_copy_3"><path d="M62,41a5,5,0,0,0-5-5H46V4a1,1,0,0,0-1-1H10A4,4,0,0,0,6,7V51a4,4,0,0,0,4,4H45a1,1,0,0,0,1-1V46h3.23l.8,3h0a3,3,0,0,0,0,6h1.63l.83,3.11a3.9,3.9,0,0,0,6.86,1.37A3.87,3.87,0,0,0,60,56.1L57.29,46A5,5,0,0,0,62,41ZM10,5H44V9H10a2,2,0,0,1,0-4ZM44,53H10a2,2,0,0,1-2-2V10.44A3.91,3.91,0,0,0,10,11H44V36H39a1,1,0,0,0-.94,1.35l3,8A1,1,0,0,0,42,46h2Zm6,0a1,1,0,0,1,0-2h.57l.53,2Zm7.73,5.26a1.88,1.88,0,0,1-1.5.74,1.91,1.91,0,0,1-1.84-1.41L51.3,46h3.93l2.83,10.61A1.91,1.91,0,0,1,57.73,58.26ZM57,44H42.69l-2.25-6H57a3,3,0,0,1,2.82,2H55a1,1,0,0,0,0,2h4.82A3,3,0,0,1,57,44Z" style="fill:#3b8686"/><path d="M15,35a1,1,0,0,0-1,1V46a1,1,0,0,0,2,0V36A1,1,0,0,0,15,35Z" style="fill:#3b8686"/><path d="M19,35a1,1,0,0,0-1,1V46a1,1,0,0,0,2,0V36A1,1,0,0,0,19,35Z" style="fill:#3b8686"/><path d="M23,35a1,1,0,0,0-1,1v7a1,1,0,0,0,2,0V36A1,1,0,0,0,23,35Z" style="fill:#3b8686"/><path d="M31,47a1,1,0,0,0,1-1V36a1,1,0,0,0-2,0V46A1,1,0,0,0,31,47Z" style="fill:#3b8686"/><path d="M27,35a1,1,0,0,0-1,1v7a1,1,0,0,0,2,0V36A1,1,0,0,0,27,35Z" style="fill:#3b8686"/><path d="M15,31H11a1,1,0,0,0-1,1v4a1,1,0,0,0,2,0V33h3a1,1,0,0,0,0-2Z" style="fill:#3b8686"/><path d="M35,31H31a1,1,0,0,0,0,2h3v3a1,1,0,0,0,2,0V32A1,1,0,0,0,35,31Z" style="fill:#3b8686"/><path d="M15,49H12V46a1,1,0,0,0-2,0v4a1,1,0,0,0,1,1h4a1,1,0,0,0,0-2Z" style="fill:#3b8686"/><path d="M35,45a1,1,0,0,0-1,1v3H31a1,1,0,0,0,0,2h4a1,1,0,0,0,1-1V46A1,1,0,0,0,35,45Z" style="fill:#3b8686"/><path d="M14,15H12a1,1,0,0,0-1,1v8a1,1,0,0,0,1,1h2a3,3,0,0,0,3-3,3,3,0,0,0-.78-2A3,3,0,0,0,17,18,3,3,0,0,0,14,15Zm-1,2h1a1,1,0,0,1,0,2H13Zm1,6H13V21h1a1,1,0,0,1,0,2Z" style="fill:#3b8686"/><path d="M22,15a3,3,0,0,0-3,3v4a3,3,0,0,0,6,0V18A3,3,0,0,0,22,15Zm1,7a1,1,0,0,1-2,0V18a1,1,0,0,1,2,0Z" style="fill:#3b8686"/><path d="M30,25a3,3,0,0,0,3-3V18a3,3,0,0,0-6,0v4A3,3,0,0,0,30,25Zm-1-7a1,1,0,0,1,2,0v4a1,1,0,0,1-2,0Z" style="fill:#3b8686"/><path d="M39.29,24.71a1,1,0,0,0,1.42,0,1,1,0,0,0,0-1.42L37.41,20l3.3-3.29a1,1,0,0,0-1.42-1.42L37,17.59V16a1,1,0,0,0-2,0v8a1,1,0,0,0,2,0V22.41Z" style="fill:#3b8686"/></g></svg>