<svg xmlns="http://www.w3.org/2000/svg" xmlns:xlink="http://www.w3.org/1999/xlink" width="546" height="546" viewBox="0 0 546 546">
  <defs>
    <clipPath id="clip-Web_1920_1">
      <rect width="546" height="546"/>
    </clipPath>
  </defs>
  <g id="Web_1920_1" data-name="Web 1920 – 1" clip-path="url(#clip-Web_1920_1)">
    <rect width="546" height="546" fill="rgba(255,255,255,0)"/>
    <g id="사각형_1" data-name="사각형 1" fill="#f8f9fa" stroke="silver" stroke-width="10">
      <rect width="546" height="546" rx="80" stroke="none"/>
      <rect x="5" y="5" width="536" height="536" rx="75" fill="none"/>
    </g>
    <g id="logo7" transform="translate(22.944 522.872)">
      <path id="패스_1" data-name="패스 1" d="M240.5-483.6c-5.9,2-56.9,24.5-110,48.6-1.1.5-10.1,4.5-20,8.8C55.2-401.9,31.4-390.7,28.8-388c-4.2,4.5-4.8,8.7-4.8,34.5,0,29.2-.2,28.5,9.9,28.5h6.8l.6,5.5c1.1,11.1,8.8,19.4,19.9,21.7l6,1.2-.6,8.6c-.3,4.7-1.6,43.4-2.8,86-1.3,47-2.5,77.6-3.1,77.9a41.107,41.107,0,0,0-4.7,3.7c-4.2,3.8-6,8.7-6,16.8V-98l-5.5.1c-3,.1-5.9.3-6.5.4-.5.1-1.7.3-2.5.4-2.8.2-9.4,7.2-10.5,10.9a83.036,83.036,0,0,0-1,13.8v10.2l-3.4.6A23.028,23.028,0,0,0,12.7-57C6.4-51.4,5-46.8,5-31c0,11,.2,12.9,1.8,14.3,1.7,1.6,20,1.7,243.4,1.7,232.7,0,241.6-.1,243.1-1.8,2.4-2.6,2.4-24.7.1-31.5-1.9-5.6-9-12.3-14-13.3l-3.4-.6V-72.9c0-11.5-1.5-16.6-6.1-20.8-3.4-3.1-6.4-4-14.4-4.2a57.822,57.822,0,0,1-7.7-.7c-.4-.3-.8-3.8-.8-7.8,0-8.3-2-12.5-7.7-16.1-2.9-1.8-3.2-2.5-3.3-6.7,0-6.1-3.8-132.8-4.5-152.5l-.5-15.2,5.5-1.6a27.777,27.777,0,0,0,9.2-4.8c4.5-4,8.3-11.9,8.3-17.5V-325h9.4c13.3,0,12.6,1.5,12.6-28.5,0-13.8-.5-25.6-1.1-27.8-2-7.4-3.8-8.5-51.4-29.7-24.7-11.1-45.9-20.5-47-21s-18.2-8.2-38-17c-71.8-32.3-79.2-35.3-87-35.7A34.465,34.465,0,0,0,240.5-483.6Zm46.5,24c16.8,7.5,31.4,14.1,32.5,14.6,1.1.4,23.2,10.3,49,21.8,25.9,11.5,49,21.8,51.4,22.8,2.5,1.1,13,5.8,23.5,10.5,14.4,6.4,19.4,9.1,20.3,11,.7,1.3,1.3,5.2,1.3,8.6v6.3H284c-179.7,0-181,0-183,2-2.5,2.5-2.6,5.2-.2,7.3,1.7,1.6,16.2,1.7,182.8,1.9l180.9.3.3,7.7.3,7.8H34.9l.3-7.8.3-7.7,15.8-.5c12.5-.4,16-.8,16.7-2a5.763,5.763,0,0,0-.7-7.2c-1.4-1.6-3.4-1.8-17-1.8H35v-6.9c0-5.1.5-7.4,1.7-8.9,1-1.2,8.6-5.1,16.8-8.7,8.3-3.7,17.4-7.8,20.3-9.1s5.5-2.4,5.7-2.4,21-9.3,46.2-20.6,46.9-21,48.3-21.6c1.4-.5,3.8-1.5,5.5-2.3,4.3-2,61.6-27.6,64-28.6,1.1-.5,4.5-.7,7.5-.6C255.5-473.4,261.9-470.9,287-459.6ZM121-321.1c0,5-3.6,10.3-8,11.8-2.3.8-11.2,1.2-26,1.2s-23.7-.4-26-1.2c-4.4-1.5-8-6.8-8-11.8V-325h68Zm27.5.8c1.1,8.1,2.6,11.4,7,15.9,4.1,4.1,11.6,7.4,16.8,7.4,1.7,0,1.9.6,1.3,6.7-.3,3.8-1.6,42.5-2.8,86.2l-2.2,79.4-3.6,2.3c-5.4,3.6-7.3,7.6-7.8,16.6l-.5,7.8H127.3l-.6-7.5c-.4-4.2-1.3-8.8-2.2-10.4-1.3-2.7-6.3-7.5-8.4-8.3-.7-.2-6.1-149.4-6.1-169.5,0-3,.3-3.3,5.3-4.7,9.9-2.9,16.3-10.7,17.4-21.2l.6-5.4h14.6Zm80.2-.7a14.033,14.033,0,0,1-6.4,10.7c-2.4,1.6-5.8,1.8-26.3,2.1-17.4.2-24.5,0-27.5-1a12.628,12.628,0,0,1-8.5-11.9V-325h69.3Zm26.7,1.2c1.5,11.4,9.2,19.8,20,21.9l5.4,1.1-.3,6.2c-.2,3.3-.6,18.2-1,33.1-.3,14.8-.8,31.3-1,36.5s-.7,21-1,35c-.4,14-.8,28.2-.9,31.5-.2,3.3-.4,11.4-.5,18l-.2,12-3.1,2c-5.7,3.6-7.3,6.8-7.8,15.8l-.5,8.2-15.7.3-15.8.3V-105c0-3.9-.6-8.5-1.4-10.3-1.2-2.9-6-7.9-8.5-8.9-.5-.1-1.2-10.9-1.5-23.8-.4-12.9-.9-30-1.1-38-.3-8-.9-31.2-1.5-51.5-.5-20.4-1.2-42-1.6-48.2l-.5-11.1,5.6-1.7c9.8-2.8,17.5-13,17.5-23.2V-325h14.7Zm80.2-1c-.8,5.1-2.7,8.1-6.3,10.5-2.3,1.6-5.7,1.8-25.4,2.1-25.2.4-29.7-.3-34-4.9-2.4-2.6-4.4-10.1-3-11.5.2-.2,15.9-.4,34.9-.4h34.5Zm26.7-1.2c-.7,11.2,9.2,22.5,21.6,24.5l4.4.7-.7,13.2c-.3,7.2-1.5,45.9-2.7,86.1-1.5,51-2.5,73.1-3.3,73.4a25.482,25.482,0,0,0-4.7,4c-4.1,4.1-5.9,9.1-5.9,16.8V-98H341.3l-.6-8c-.4-6.8-1-8.7-3.3-11.7a26.3,26.3,0,0,0-5.5-5.2c-2.8-1.5-2.9-1.9-2.9-9.6,0-4.4-.5-21.5-1-38s-1.4-45.3-2-64c-.5-18.7-1.3-40.4-1.6-48.2l-.6-14.1,5.7-1.7A24.247,24.247,0,0,0,347-321.4v-3.7l7.8.3C362.3-324.5,362.5-324.4,362.3-322Zm80.7.2c0,4-2.9,9.1-6.7,11.5-2.4,1.6-5.3,1.8-27.9,1.8-27.6,0-28.8-.2-32.4-6.1a14.9,14.9,0,0,1-2-6.8V-325h69ZM99-292.3c0,2.7,1.1,40.6,2.5,84.3s2.5,80.3,2.5,81.2c0,1.6-1.4,1.8-15.5,1.8H73v-8.8c0-4.8.5-21.3,1-36.7s1.4-44.2,2-64c.5-19.8,1.3-42,1.6-49.3l.6-13.2H99Zm107,2c0,8.3,3.7,130,4.5,150.5l.6,14.8H179.8l.6-23.3c.4-12.7.8-29.1,1.1-36.2.3-7.2.9-30.8,1.5-52.5s1.3-44.1,1.6-49.8l.6-10.2H206Zm107-5.5c0,.7,1.1,37.5,2.5,81.8s2.5,82.4,2.5,84.7v4.3H287v-2.8c0-1.5,1.1-38.5,2.5-82.2s2.5-81.2,2.5-83.3V-297h10.5C310.2-297,313-296.7,313-295.8Zm107,1.5c0,1.6,1.1,38.6,2.5,82.3s2.5,81.2,2.5,83.2v3.8H394v-4.8c0-2.6,1.1-40.7,2.5-84.7s2.5-80.6,2.5-81.3c0-.9,2.8-1.2,10.5-1.2H420ZM113-112c1.6,1.6,2,3.3,2,8v6H61v-4.9c0-6.1,1.3-9.8,3.7-10.4,1-.3,11.8-.5,24.1-.6C109.8-114,111.1-113.9,113-112Zm106.8-.4c1.9,1.3,2.2,2.4,2.2,8V-98H169v-6.4c0-9.7-.3-9.6,26.5-9.6C213.8-114,217.9-113.7,219.8-112.4Zm107,0c1.9,1.3,2.2,2.4,2.2,8V-98H276v-6.4c0-9.7-.3-9.6,26.5-9.6C320.8-114,324.9-113.7,326.8-112.4Zm107.4.1c1.4,1.2,1.8,3.1,1.8,8V-98H383v-6.4c0-9.7-.3-9.6,26.9-9.6C429.4-114,432.6-113.8,434.2-112.3Zm29.2,28.5c1.2,1.6,1.6,4.7,1.6,11.5V-63H35v-9.3c0-6.8.4-9.9,1.6-11.5L38.1-86H461.9Zm13.1,33.2C482-48.3,484-44,484-34.3V-26H16v-8.3c0-9.5,2-13.9,7.3-16.2C28.2-52.7,471.4-52.7,476.5-50.6Z" fill="#434141"/>
      <path id="패스_2" data-name="패스 2" d="M178-413v22h6v-20h10v20h6v-44h-6v18H184v-18h-6Z" fill="#434141"/>
      <path id="패스_3" data-name="패스 3" d="M206-414.1c0,16.6.3,21.1,1.4,22,.9.8,4.7,1.1,10.7.9l9.4-.3.3-21.8L228-435h-6v39h-9v-39h-7Z" fill="#434141"/>
      <path id="패스_4" data-name="패스 4" d="M235-413v22h5.9l.3-12.3.3-12.2,2.6,9.5c2,7.5,3,9.6,4.5,9.8,1.6.2,2.3-1.1,4.4-9l2.5-9.3.3,11.7.3,11.8h6.4v-44h-3.1c-3,0-3.1,0-6.9,12.6l-3.9,12.7-4.1-12.6c-3.8-12.2-4.1-12.7-6.7-12.7H235Z" fill="#434141"/>
      <path id="패스_5" data-name="패스 5" d="M269.4-433.7c-.2.7-.3,10.5-.2,21.7l.3,20.5,8.5.3c14.3.5,13,2.6,13-21.7,0-18.1-.2-21-1.6-21.5C286.2-435.6,270-435.1,269.4-433.7Zm15.4,20.4-.3,16.8-4.7.3-4.8.3V-430h10Z" fill="#434141"/>
      <path id="패스_6" data-name="패스 6" d="M297-413v22h6v-39h10v14h-3.5c-4.5,0-4.5.9.3,14.1,3.8,10.1,4,10.4,7.1,10.7,3.8.4,3.8.9-1-11.8-3.4-8.8-3.4-9-1-9,3.5,0,4.2-2.3,3.9-12.6l-.3-9.9-10.7-.3-10.8-.3Z" fill="#434141"/>
      <path id="패스_7" data-name="패스 7" d="M59-383c-2.7,2.7-2.6,7.5.2,9.4,3.2,2.3,5.4,2,7.7-1,2.7-3.4,2.6-5-.4-7.9C63.6-385.5,61.6-385.6,59-383Z" fill="#434141"/>
      <path id="패스_8" data-name="패스 8" d="M81.1-382.4c-2.7,3.4-2.6,4,.4,6.9l2.4,2.5h47.3c52.2,0,51.8,0,51.8-6,0-6.1.5-6-52.1-6H83.1Z" fill="#434141"/>
    </g>
  </g>
</svg>
