<?xml version="1.0" standalone="no"?>
<!DOCTYPE svg PUBLIC "-//W3C//DTD SVG 20010904//EN"
 "http://www.w3.org/TR/2001/REC-SVG-20010904/DTD/svg10.dtd">
<svg version="1.0" xmlns="http://www.w3.org/2000/svg"
 width="500.000000pt" height="500.000000pt" viewBox="0 0 500.000000 500.000000"
 preserveAspectRatio="xMidYMid meet">

<g transform="translate(0.000000,500.000000) scale(0.100000,-0.100000)"
fill="#000000" stroke="none">
<path d="M2405 4836 c-59 -20 -569 -245 -1100 -486 -11 -5 -101 -45 -200 -88
-553 -243 -791 -355 -817 -382 -42 -45 -48 -87 -48 -345 0 -292 -2 -285 99
-285 l68 0 6 -55 c11 -111 88 -194 199 -217 l60 -12 -6 -86 c-3 -47 -16 -434
-28 -860 -13 -470 -25 -776 -31 -779 -5 -2 -26 -19 -47 -37 -42 -38 -60 -87
-60 -168 l0 -56 -55 -1 c-30 -1 -59 -3 -65 -4 -5 -1 -17 -3 -25 -4 -28 -2 -94
-72 -105 -109 -5 -21 -10 -83 -10 -138 l0 -102 -34 -6 c-18 -4 -54 -24 -79
-46 -63 -56 -77 -102 -77 -260 0 -110 2 -129 18 -143 17 -16 200 -17 2434 -17
2327 0 2416 1 2431 18 24 26 24 247 1 315 -19 56 -90 123 -140 133 l-34 6 0
107 c0 115 -15 166 -61 208 -34 31 -64 40 -144 42 -38 2 -73 5 -77 7 -4 3 -8
38 -8 78 0 83 -20 125 -77 161 -29 18 -32 25 -33 67 0 61 -38 1328 -45 1525
l-5 152 55 16 c30 8 71 30 92 48 45 40 83 119 83 175 l0 42 94 0 c133 0 126
-15 126 285 0 138 -5 256 -11 278 -20 74 -38 85 -514 297 -247 111 -459 205
-470 210 -11 5 -182 82 -380 170 -718 323 -792 353 -870 357 -42 2 -86 -3
-110 -11z m465 -240 c168 -75 314 -141 325 -146 11 -4 232 -103 490 -218 259
-115 490 -218 514 -228 25 -11 130 -58 235 -105 144 -64 194 -91 203 -110 7
-13 13 -52 13 -86 l0 -63 -1810 0 c-1797 0 -1810 0 -1830 -20 -25 -25 -26 -52
-2 -73 17 -16 162 -17 1828 -19 l1809 -3 3 -77 3 -78 -2151 0 -2151 0 3 78 3
77 158 5 c125 4 160 8 167 20 15 23 12 51 -7 72 -14 16 -34 18 -170 18 l-153
0 0 69 c0 51 5 74 17 89 10 12 86 51 168 87 83 37 174 78 203 91 29 13 55 24
57 24 2 0 210 93 462 206 252 113 469 210 483 216 14 5 38 15 55 23 43 20 616
276 640 286 11 5 45 7 75 6 45 -3 109 -28 360 -141z m-1660 -1385 c0 -50 -36
-103 -80 -118 -23 -8 -112 -12 -260 -12 -148 0 -237 4 -260 12 -44 15 -80 68
-80 118 l0 39 340 0 340 0 0 -39z m275 -8 c11 -81 26 -114 70 -159 41 -41 116
-74 168 -74 17 0 19 -6 13 -67 -3 -38 -16 -425 -28 -862 l-22 -794 -36 -23
c-54 -36 -73 -76 -78 -166 l-5 -78 -147 0 -147 0 -6 75 c-4 42 -13 88 -22 104
-13 27 -63 75 -84 83 -7 2 -61 1494 -61 1695 0 30 3 33 53 47 99 29 163 107
174 212 l6 54 73 0 73 0 6 -47z m802 7 c-6 -48 -27 -83 -64 -107 -24 -16 -58
-18 -263 -21 -174 -2 -245 0 -275 10 -50 16 -85 66 -85 119 l0 39 346 0 347 0
-6 -40z m267 -12 c15 -114 92 -198 200 -219 l54 -11 -3 -62 c-2 -33 -6 -182
-10 -331 -3 -148 -8 -313 -10 -365 -2 -52 -7 -210 -10 -350 -4 -140 -8 -282
-9 -315 -2 -33 -4 -114 -5 -180 l-2 -120 -31 -20 c-57 -36 -73 -68 -78 -158
l-5 -82 -157 -3 -158 -3 0 71 c0 39 -6 85 -14 103 -12 29 -60 79 -85 89 -5 1
-12 109 -15 238 -4 129 -9 300 -11 380 -3 80 -9 312 -15 515 -5 204 -12 420
-16 482 l-5 111 56 17 c98 28 175 130 175 232 l0 33 74 0 73 0 7 -52z m802 10
c-8 -51 -27 -81 -63 -105 -23 -16 -57 -18 -254 -21 -252 -4 -297 3 -340 49
-24 26 -44 101 -30 115 2 2 159 4 349 4 l345 0 -7 -42z m267 12 c-7 -112 92
-225 216 -245 l44 -7 -7 -132 c-3 -72 -15 -459 -27 -861 -15 -510 -25 -731
-33 -734 -6 -2 -27 -20 -47 -40 -41 -41 -59 -91 -59 -168 l0 -53 -149 0 -148
0 -6 80 c-4 68 -10 87 -33 117 -15 19 -40 43 -55 52 -28 15 -29 19 -29 96 0
44 -5 215 -10 380 -5 165 -14 453 -20 640 -5 187 -13 404 -16 482 l-6 141 57
17 c102 29 175 125 175 229 l0 37 78 -3 c75 -3 77 -4 75 -28z m807 -2 c0 -40
-29 -91 -67 -115 -24 -16 -53 -18 -279 -18 -276 0 -288 2 -324 61 -11 17 -20
48 -20 68 l0 36 345 0 345 0 0 -32z m-3440 -295 c0 -27 11 -406 25 -843 14
-437 25 -803 25 -812 0 -16 -14 -18 -155 -18 l-155 0 0 88 c0 48 5 213 10 367
5 154 14 442 20 640 5 198 13 420 16 493 l6 132 104 0 104 0 0 -47z m1070 -20
c0 -83 37 -1300 45 -1505 l6 -148 -156 0 -157 0 6 233 c4 127 8 291 11 362 3
72 9 308 15 525 6 217 13 441 16 498 l6 102 104 0 104 0 0 -67z m1070 55 c0
-7 11 -375 25 -818 14 -443 25 -824 25 -847 l0 -43 -155 0 -155 0 0 28 c0 15
11 385 25 822 14 437 25 812 25 833 l0 37 105 0 c77 0 105 -3 105 -12z m1070
-15 c0 -16 11 -386 25 -823 14 -437 25 -812 25 -832 l0 -38 -155 0 -155 0 0
48 c0 26 11 407 25 847 14 440 25 806 25 813 0 9 28 12 105 12 l105 0 0 -27z
m-3070 -1823 c16 -16 20 -33 20 -80 l0 -60 -270 0 -270 0 0 49 c0 61 13 98 37
104 10 3 118 5 241 6 210 1 223 0 242 -19z m1068 4 c19 -13 22 -24 22 -80 l0
-64 -265 0 -265 0 0 64 c0 97 -3 96 265 96 183 0 224 -3 243 -16z m1070 0 c19
-13 22 -24 22 -80 l0 -64 -265 0 -265 0 0 64 c0 97 -3 96 265 96 183 0 224 -3
243 -16z m1074 -1 c14 -12 18 -31 18 -80 l0 -63 -265 0 -265 0 0 64 c0 97 -3
96 269 96 195 0 227 -2 243 -17z m292 -285 c12 -16 16 -47 16 -115 l0 -93
-2150 0 -2150 0 0 93 c0 68 4 99 16 115 l15 22 2119 0 2119 0 15 -22z m131
-332 c55 -23 75 -66 75 -163 l0 -83 -2340 0 -2340 0 0 83 c0 95 20 139 73 162
49 22 4481 22 4532 1z"/>
<path d="M1780 4130 l0 -220 30 0 30 0 0 100 0 100 50 0 50 0 0 -100 0 -100
30 0 30 0 0 220 0 220 -30 0 -30 0 0 -90 0 -90 -50 0 -50 0 0 90 0 90 -30 0
-30 0 0 -220z"/>
<path d="M2060 4141 c0 -166 3 -211 14 -220 9 -8 47 -11 107 -9 l94 3 3 218 2
217 -30 0 -30 0 0 -195 0 -195 -45 0 -45 0 0 195 0 195 -35 0 -35 0 0 -209z"/>
<path d="M2350 4130 l0 -220 30 0 29 0 3 123 3 122 26 -95 c20 -75 30 -96 45
-98 16 -2 23 11 44 90 l25 93 3 -117 3 -118 32 0 32 0 0 220 0 220 -31 0 c-30
0 -31 0 -69 -126 l-39 -127 -41 126 c-38 122 -41 127 -67 127 l-28 0 0 -220z"/>
<path d="M2694 4337 c-2 -7 -3 -105 -2 -217 l3 -205 85 -3 c143 -5 130 -26
130 217 0 181 -2 210 -16 215 -32 12 -194 7 -200 -7z m154 -204 l-3 -168 -47
-3 -48 -3 0 170 0 171 50 0 50 0 -2 -167z"/>
<path d="M2970 4130 l0 -220 30 0 30 0 0 195 0 195 50 0 50 0 0 -70 0 -70 -35
0 c-45 0 -45 -9 3 -141 38 -101 40 -104 71 -107 38 -4 38 -9 -10 118 -34 88
-34 90 -10 90 35 0 42 23 39 126 l-3 99 -107 3 -108 3 0 -221z"/>
<path d="M590 3830 c-27 -27 -26 -75 2 -94 32 -23 54 -20 77 10 27 34 26 50
-4 79 -29 30 -49 31 -75 5z"/>
<path d="M811 3824 c-27 -34 -26 -40 4 -69 l24 -25 473 0 c522 0 518 0 518 60
0 61 5 60 -521 60 l-478 0 -20 -26z"/>
</g>
</svg>
