<?xml version="1.0" encoding="UTF-8" standalone="no" ?>
<!DOCTYPE svg PUBLIC "-//W3C//DTD SVG 1.1//EN" "http://www.w3.org/Graphics/SVG/1.1/DTD/svg11.dtd">
<svg xmlns="http://www.w3.org/2000/svg" xmlns:xlink="http://www.w3.org/1999/xlink" version="1.1" width="40" height="40" viewBox="0 0 35 35" xml:space="preserve">
<desc>Created with Fabric.js 4.6.0</desc>
<defs>
</defs>
<g transform="matrix(1 0 0 1 17.49 17.42)" id="Bvm0iP01TCSA-3PnCN_EC"  >
<path style="stroke: rgb(255,195,195); stroke-width: 1; stroke-dasharray: none; stroke-linecap: butt; stroke-dashoffset: 0; stroke-linejoin: miter; stroke-miterlimit: 4; fill: rgb(247,114,114); fill-rule: nonzero; opacity: 1;" vector-effect="non-scaling-stroke"  transform=" translate(-17, -17)" d="M 0 7.21249 C 0 3.2291399999999997 3.22914 0 7.21249 0 L 26.78752 0 L 26.78752 0 C 30.770870000000002 0 34.00001 3.22914 34.00001 7.21249 L 34.00001 26.78752 L 34.00001 26.78752 C 34.00001 30.770870000000002 30.770870000000002 34.00001 26.787520000000004 34.00001 L 7.2124900000000025 34.00001 L 7.2124900000000025 34.00001 C 3.2291400000000023 34.00001 2.6645352591003757e-15 30.770870000000002 2.6645352591003757e-15 26.787520000000004 z" stroke-linecap="round" />
</g>
<g transform="matrix(1 0 0 1 17.49 17.42)" id="aZFAn7RDCbtVcOA-IRnwo"  >
<path style="stroke: none; stroke-width: 1; stroke-dasharray: none; stroke-linecap: butt; stroke-dashoffset: 0; stroke-linejoin: miter; stroke-miterlimit: 4; fill: rgb(255,255,255); fill-rule: nonzero; opacity: 1;" vector-effect="non-scaling-stroke"  transform=" translate(-11, -11.76)" d="M 20.77775 7.07408 L 20.77775 7.07408 L 13.44447 0.8971 C 12.052610000000001 -0.29904 9.94748 -0.29904 8.555620000000001 0.8971 L 1.2223400000000009 7.07408 C 0.43700000000000083 7.7489300000000005 -0.008249999999999202 8.715770000000001 0.00013000000000085166 9.72807 L 0.00013000000000085166 19.99172 C 0.00013000000000085166 21.93741 1.6417400000000009 23.51471 3.666770000000001 23.51471 L 18.33333 23.51471 C 20.35836 23.51471 21.99997 21.93741 21.99997 19.99172 L 21.99997 9.716330000000001 C 22.004830000000002 8.708120000000001 21.559890000000003 7.746220000000001 20.77776 7.074090000000001 z M 13.44447 21.16605 L 8.555620000000001 21.16605 L 8.555620000000001 15.2944 C 8.555620000000001 14.64584 9.102820000000001 14.12007 9.777830000000002 14.12007 L 12.222260000000002 14.12007 C 12.897270000000002 14.12007 13.444470000000003 14.64584 13.444470000000003 15.2944 z M 19.55553 19.99172 C 19.55553 20.64028 19.00833 21.166050000000002 18.33332 21.166050000000002 L 15.88889 21.166050000000002 L 15.88889 15.294400000000003 C 15.88889 13.348710000000004 14.24728 11.771410000000003 12.222249999999999 11.771410000000003 L 9.777819999999998 11.771410000000003 C 7.752789999999998 11.771410000000003 6.111179999999998 13.348710000000002 6.111179999999998 15.294400000000003 L 6.111179999999998 21.166050000000002 L 3.666749999999998 21.166050000000002 C 2.9917399999999983 21.166050000000002 2.444539999999998 20.64028 2.444539999999998 19.99172 L 2.444539999999998 9.716330000000001 C 2.4449799999999984 9.37903 2.596359999999998 9.058200000000001 2.8600899999999982 8.83558 L 10.193369999999998 2.67035 C 10.654759999999998 2.28089 11.345299999999998 2.28089 11.806689999999998 2.67035 L 19.139969999999998 8.83558 C 19.403699999999997 9.0582 19.555079999999997 9.37903 19.555519999999998 9.716330000000001 z" stroke-linecap="round" />
</g>
</svg>
