<?xml version="1.0" encoding="UTF-8" standalone="no" ?>
<!DOCTYPE svg PUBLIC "-//W3C//DTD SVG 1.1//EN" "http://www.w3.org/Graphics/SVG/1.1/DTD/svg11.dtd">
<svg xmlns="http://www.w3.org/2000/svg" xmlns:xlink="http://www.w3.org/1999/xlink" version="1.1" width="35" height="35" viewBox="0 0 35 35" xml:space="preserve">
<desc>Created with Fabric.js 4.6.0</desc>
<defs>
</defs>
<g transform="matrix(1 0 0 1 17.44 17.58)" id="c5_oGDnsup8tzLlISHyQQ"  >
<path style="stroke: rgb(255,227,171); stroke-width: 1; stroke-dasharray: none; stroke-linecap: butt; stroke-dashoffset: 0; stroke-linejoin: miter; stroke-miterlimit: 4; fill: rgb(247,201,109); fill-rule: nonzero; opacity: 1;" vector-effect="non-scaling-stroke"  transform=" translate(0, 0)" d="M -17 -9.78751 C -17 -13.770859999999999 -13.770859999999999 -17 -9.787510000000001 -17 L 9.78752 -17 L 9.78752 -17 C 13.77087 -17 17.00001 -13.770859999999999 17.00001 -9.787510000000001 L 17.00001 9.78752 L 17.00001 9.78752 C 17.00001 13.77087 13.770869999999999 17.00001 9.78752 17.00001 L -9.787510000000001 17.00001 L -9.787510000000001 17.00001 C -13.77086 17.00001 -17 13.770869999999999 -17 9.78752 z" stroke-linecap="round" />
</g>
<g transform="matrix(0.6 0 0 0.6 17.44 17.58)" id="hUd_R4J5V1LKyMhuylh7T"  >
<path style="stroke: none; stroke-width: 1; stroke-dasharray: none; stroke-linecap: butt; stroke-dashoffset: 0; stroke-linejoin: miter; stroke-miterlimit: 4; fill: rgb(255,255,255); fill-rule: nonzero; opacity: 1;" vector-effect="non-scaling-stroke"  transform=" translate(-24, -24)" d="M 19.4 44 L 18.4 37.7 Q 17.45 37.35 16.4 36.75 Q 15.35 36.15 14.55 35.5 L 8.65 38.2 L 4 30 L 9.4 26.05 Q 9.3 25.6 9.275 25.025 Q 9.25 24.45 9.25 24 Q 9.25 23.55 9.275 22.975 Q 9.3 22.4 9.4 21.95 L 4 18 L 8.65 9.8 L 14.55 12.5 Q 15.35 11.85 16.4 11.25 Q 17.45 10.65 18.4 10.35 L 19.4 4 L 28.6 4 L 29.6 10.3 Q 30.55 10.65 31.625 11.225 Q 32.7 11.8 33.45 12.5 L 39.35 9.8 L 44 18 L 38.6 21.85 Q 38.7 22.35 38.725 22.925 Q 38.75 23.5 38.75 24 Q 38.75 24.5 38.725 25.05 Q 38.7 25.6 38.6 26.1 L 44 30 L 39.35 38.2 L 33.45 35.5 Q 32.65 36.15 31.625 36.775 Q 30.6 37.4 29.6 37.7 L 28.6 44 Z M 24 30.5 Q 26.7 30.5 28.6 28.6 Q 30.5 26.7 30.5 24 Q 30.5 21.3 28.6 19.4 Q 26.7 17.5 24 17.5 Q 21.3 17.5 19.4 19.4 Q 17.5 21.3 17.5 24 Q 17.5 26.7 19.4 28.6 Q 21.3 30.5 24 30.5 Z M 24 27.5 Q 22.55 27.5 21.525 26.475 Q 20.5 25.45 20.5 24 Q 20.5 22.55 21.525 21.525 Q 22.55 20.5 24 20.5 Q 25.45 20.5 26.475 21.525 Q 27.5 22.55 27.5 24 Q 27.5 25.45 26.475 26.475 Q 25.45 27.5 24 27.5 Z M 24 24 Q 24 24 24 24 Q 24 24 24 24 Q 24 24 24 24 Q 24 24 24 24 Q 24 24 24 24 Q 24 24 24 24 Q 24 24 24 24 Q 24 24 24 24 Q 24 24 24 24 Q 24 24 24 24 Q 24 24 24 24 Q 24 24 24 24 Q 24 24 24 24 Q 24 24 24 24 Q 24 24 24 24 Q 24 24 24 24 Z M 21.8 41 L 26.2 41 L 26.9 35.4 Q 28.55 35 30.025 34.15 Q 31.5 33.3 32.7 32.1 L 38 34.4 L 40 30.8 L 35.3 27.35 Q 35.5 26.5 35.625 25.675 Q 35.75 24.85 35.75 24 Q 35.75 23.15 35.65 22.325 Q 35.55 21.5 35.3 20.65 L 40 17.2 L 38 13.6 L 32.7 15.9 Q 31.55 14.6 30.1 13.725 Q 28.65 12.85 26.9 12.6 L 26.2 7 L 21.8 7 L 21.1 12.6 Q 19.4 12.95 17.925 13.8 Q 16.45 14.65 15.3 15.9 L 10 13.6 L 8 17.2 L 12.7 20.65 Q 12.5 21.5 12.375 22.325 Q 12.25 23.15 12.25 24 Q 12.25 24.85 12.375 25.675 Q 12.5 26.5 12.7 27.35 L 8 30.8 L 10 34.4 L 15.3 32.1 Q 16.5 33.3 17.975 34.15 Q 19.45 35 21.1 35.4 Z" stroke-linecap="round" />
</g>
</svg>