<?xml version="1.0" encoding="UTF-8" standalone="no" ?>
<!DOCTYPE svg PUBLIC "-//W3C//DTD SVG 1.1//EN" "http://www.w3.org/Graphics/SVG/1.1/DTD/svg11.dtd">
<svg xmlns="http://www.w3.org/2000/svg" xmlns:xlink="http://www.w3.org/1999/xlink" version="1.1" width="35" height="35" viewBox="0 0 35 35" xml:space="preserve">
<desc>Created with Fabric.js 4.6.0</desc>
<defs>
</defs>
<g transform="matrix(1 0 0 1 17.54 17.58)" id="qC0B1w2tAMHOHlm7RukgV"  >
<path style="stroke: rgb(114,201,186); stroke-width: 1; stroke-dasharray: none; stroke-linecap: butt; stroke-dashoffset: 0; stroke-linejoin: miter; stroke-miterlimit: 4; fill: rgb(0,203,168); fill-rule: nonzero; opacity: 1;" vector-effect="non-scaling-stroke"  transform=" translate(-17, -17)" d="M 0 7.21249 C 0 3.2291399999999997 3.22914 0 7.21249 0 L 26.78752 0 L 26.78752 0 C 30.770870000000002 0 34.00001 3.22914 34.00001 7.21249 L 34.00001 26.78752 L 34.00001 26.78752 C 34.00001 30.770870000000002 30.770870000000002 34.00001 26.787520000000004 34.00001 L 7.2124900000000025 34.00001 L 7.2124900000000025 34.00001 C 3.2291400000000023 34.00001 2.6645352591003757e-15 30.770870000000002 2.6645352591003757e-15 26.787520000000004 z" stroke-linecap="round" />
</g>
<g transform="matrix(1 0 0 1 17.54 18.33)" id="zUwRMVBRlmSpXFh3JowfA"  >
<path style="stroke: none; stroke-width: 1; stroke-dasharray: none; stroke-linecap: butt; stroke-dashoffset: 0; stroke-linejoin: miter; stroke-miterlimit: 4; fill: rgb(255,255,255); fill-rule: nonzero; opacity: 1;" vector-effect="non-scaling-stroke"  transform=" translate(-12, -12)" d="M 22 5 L 2 5 C 1.4477152501692065 5 1 5.447715250169207 1 6 L 1 10 C 1.0035643657121749 11.26825491855921 1.8042713026415549 12.397251699629635 3.0000000000000004 12.82 L 3 22 C 3 22.552284749830793 3.4477152501692068 23 4 23 L 20 23 C 20.552284749830793 23 21 22.552284749830793 21 22 L 21 12.82 C 22.195728697358447 12.397251699629635 22.996435634287824 11.26825491855921 23 10 L 23 6 C 23 5.447715250169207 22.552284749830793 5 22 5 Z M 15 7 L 17 7 L 17 10 C 17 10.552284749830793 16.552284749830793 11 16 11 C 15.447715250169207 11 15 10.552284749830793 15 10 Z M 11 7 L 13 7 L 13 10 C 13 10.552284749830793 12.552284749830793 11 12 11 C 11.447715250169207 11 11 10.552284749830793 11 10 Z M 7 7 L 9 7 L 9 10 C 9 10.552284749830793 8.552284749830793 11 8 11 C 7.447715250169207 11 7 10.552284749830793 7 10 Z M 4 11 C 3.4477152501692068 11 3 10.552284749830793 3 10 L 3 7 L 5 7 L 5 10 C 5 10.552284749830793 4.552284749830793 11 4 11 Z M 14 21 L 10 21 L 10 19 C 10 17.895430500338414 10.895430500338414 17 12 17 C 13.104569499661586 17 14 17.895430500338414 14 19 Z M 19 21 L 16 21 L 16 19 C 16 16.790861000676827 14.209138999323173 15 12 15 C 9.790861000676827 15 8 16.790861000676827 8 19 L 8 21 L 5 21 L 5 12.82 C 5.367569952951023 12.68356246275809 5.706639842221364 12.480120529195885 6.000000000000001 12.219999999999999 C 7.138802621666247 13.238576030000281 8.861197378333753 13.238576030000281 10 12.22 C 11.138802621666246 13.238576030000281 12.861197378333753 13.238576030000281 14 12.22 C 15.138802621666246 13.238576030000281 16.861197378333753 13.238576030000281 18 12.22 C 18.293360157778636 12.480120529195887 18.632430047048977 12.68356246275809 19 12.82 Z M 21 10 C 21 10.552284749830793 20.552284749830793 11 20 11 C 19.447715250169207 11 19 10.552284749830793 19 10 L 19 7 L 21 7 Z M 4.3 3 L 20 3 C 20.552284749830793 3 21 2.5522847498307932 21 2 C 21 1.4477152501692065 20.552284749830793 1 20 1 L 4.3 1 C 3.7477152501692066 1 3.3 1.4477152501692065 3.3 2 C 3.3 2.5522847498307932 3.7477152501692066 3 4.3 3 Z" stroke-linecap="round" />
</g>
</svg>